<?xml version="1.0" standalone="no"?>
<!DOCTYPE svg PUBLIC "-//W3C//DTD SVG 20010904//EN"
 "http://www.w3.org/TR/2001/REC-SVG-20010904/DTD/svg10.dtd">
<svg version="1.0" xmlns="http://www.w3.org/2000/svg"
 width="300.000000pt" height="300.000000pt" viewBox="0 0 300.000000 300.000000"
 preserveAspectRatio="xMidYMid meet">
<metadata>
Created by potrace 1.11, written by Peter Selinger 2001-2013
</metadata>
<g transform="translate(0.000000,300.000000) scale(0.100000,-0.100000)"
fill="#000000" stroke="none">
<path d="M1550 2547 c-3 -3 -32 -7 -65 -10 -52 -5 -97 -13 -180 -31 -46 -9
-180 -58 -228 -82 -103 -52 -193 -118 -273 -198 -132 -133 -210 -274 -258
-466 -25 -96 -28 -372 -7 -485 41 -214 143 -401 298 -545 99 -93 213 -162 378
-231 29 -12 164 -49 205 -55 19 -3 38 -8 41 -9 29 -19 461 -27 594 -12 151 17
252 50 280 93 22 34 54 197 71 357 5 52 3 65 -11 77 -20 17 -30 6 -45 -55 -34
-133 -157 -260 -287 -294 -74 -19 -99 -22 -238 -26 -202 -6 -320 22 -467 111
-71 44 -89 57 -168 134 -155 150 -250 344 -277 564 -11 88 -7 290 7 376 51
316 209 527 453 604 114 36 126 38 272 41 257 6 471 -59 582 -176 58 -62 84
-129 98 -257 4 -36 22 -49 41 -31 12 13 16 46 19 150 5 157 14 306 19 336 3
12 -1 26 -8 32 -10 9 -110 30 -226 47 -19 3 -42 7 -50 9 -8 3 -40 7 -70 10
-30 4 -66 9 -80 11 -31 7 -414 16 -420 11z"/>
</g>
</svg>
